<svg xmlns="http://www.w3.org/2000/svg" width="1280" height="640" viewBox="0 0 1280 640" role="img" aria-labelledby="title desc">
  <title id="title">EcoGuard repository social preview</title>
  <desc id="desc">A reproducible evidence pipeline linking document normalization, legal citations, CBAM traces, and forest XAI.</desc>
  <defs>
    <linearGradient id="background" x1="0" y1="0" x2="1" y2="1">
      <stop offset="0" stop-color="#071a15"/>
      <stop offset="1" stop-color="#123b31"/>
    </linearGradient>
    <linearGradient id="accent" x1="0" y1="0" x2="1" y2="0">
      <stop offset="0" stop-color="#39c8a2"/>
      <stop offset="1" stop-color="#9fe0cd"/>
    </linearGradient>
    <filter id="shadow" x="-20%" y="-20%" width="140%" height="140%">
      <feDropShadow dx="0" dy="12" stdDeviation="18" flood-color="#000000" flood-opacity="0.22"/>
    </filter>
  </defs>

  <rect width="1280" height="640" fill="url(#background)"/>
  <circle cx="1178" cy="-36" r="240" fill="#39c8a2" opacity="0.08"/>
  <circle cx="1080" cy="650" r="250" fill="#f4a261" opacity="0.07"/>
  <path d="M0 528 C240 470 410 608 660 538 S1040 470 1280 530 V640 H0Z" fill="#39c8a2" opacity="0.045"/>

  <g transform="translate(72 72)">
    <rect width="70" height="70" rx="20" fill="url(#accent)"/>
    <path d="M20 23h30M20 35h22M20 47h17" fill="none" stroke="#071a15" stroke-width="5" stroke-linecap="round"/>
    <path d="M48 44l7 7 13-16" fill="none" stroke="#071a15" stroke-width="5" stroke-linecap="round" stroke-linejoin="round"/>
    <text x="92" y="53" fill="#f6fffb" font-family="DejaVu Sans, sans-serif" font-size="52" font-weight="800" letter-spacing="-1">EcoGuard</text>
  </g>

  <g transform="translate(72 184)">
    <text fill="#f6fffb" font-family="DejaVu Sans, sans-serif" font-size="52" font-weight="760">
      <tspan x="0" y="0">Evidence that survives</tspan>
      <tspan x="0" y="66">technical review.</tspan>
    </text>
    <text x="0" y="176" fill="#bfe8dc" font-family="DejaVu Sans, sans-serif" font-size="24">
      Reproducible trade-finance evidence pipeline
    </text>
    <text x="0" y="212" fill="#8dbbad" font-family="DejaVu Sans, sans-serif" font-size="20">
      Deterministic artifacts · fail-closed inputs · field-level provenance
    </text>
  </g>

  <g transform="translate(700 110)" filter="url(#shadow)" font-family="DejaVu Sans, sans-serif">
    <rect width="500" height="365" rx="30" fill="#f8fffc"/>
    <text x="34" y="51" fill="#49625a" font-size="15" font-weight="700" letter-spacing="1.5">ONE TRACEABLE DECISION PATH</text>

    <g transform="translate(32 78)">
      <rect width="205" height="94" rx="18" fill="#e3f6ef"/>
      <circle cx="38" cy="34" r="16" fill="#007b63"/>
      <path d="M31 30h14M31 36h10M31 42h12" stroke="#ffffff" stroke-width="2.5" stroke-linecap="round"/>
      <text x="67" y="38" fill="#143b31" font-size="20" font-weight="750">DOCUMENTS</text>
      <text x="20" y="72" fill="#547269" font-size="15">raw line · span · hash</text>

      <path d="M218 47h42" stroke="#39c8a2" stroke-width="4" stroke-linecap="round"/>
      <path d="M252 39l10 8-10 8" fill="none" stroke="#39c8a2" stroke-width="4" stroke-linecap="round" stroke-linejoin="round"/>

      <rect x="275" width="193" height="94" rx="18" fill="#e3f6ef"/>
      <circle cx="311" cy="34" r="16" fill="#007b63"/>
      <path d="M304 34l5 5 9-11" fill="none" stroke="#ffffff" stroke-width="2.8" stroke-linecap="round" stroke-linejoin="round"/>
      <text x="338" y="38" fill="#143b31" font-size="20" font-weight="750">PROVENANCE</text>
      <text x="295" y="72" fill="#547269" font-size="15">normalize · select · retain</text>
    </g>

    <g transform="translate(32 199)">
      <rect width="205" height="94" rx="18" fill="#fff1de"/>
      <circle cx="38" cy="34" r="16" fill="#d77525"/>
      <path d="M29 40l9-18 9 18M33 34h10" fill="none" stroke="#ffffff" stroke-width="2.5" stroke-linecap="round" stroke-linejoin="round"/>
      <text x="67" y="38" fill="#593719" font-size="20" font-weight="750">LEGAL · CBAM</text>
      <text x="20" y="72" fill="#7b5a3c" font-size="15">citations · 11-step trace</text>

      <path d="M218 47h42" stroke="#39c8a2" stroke-width="4" stroke-linecap="round"/>
      <path d="M252 39l10 8-10 8" fill="none" stroke="#39c8a2" stroke-width="4" stroke-linecap="round" stroke-linejoin="round"/>

      <rect x="275" width="193" height="94" rx="18" fill="#e3f6ef"/>
      <circle cx="311" cy="34" r="16" fill="#007b63"/>
      <path d="M303 40c3-13 6-18 9-18s6 5 9 18M305 34h14" fill="none" stroke="#ffffff" stroke-width="2.5" stroke-linecap="round"/>
      <text x="338" y="38" fill="#143b31" font-size="20" font-weight="750">FOREST XAI</text>
      <text x="295" y="72" fill="#547269" font-size="15">Sentinel-2 · Grad-CAM</text>
    </g>

    <rect x="32" y="321" width="436" height="4" rx="2" fill="url(#accent)"/>
    <text x="32" y="350" fill="#49625a" font-size="15" font-weight="650">REPLAYABLE FROM INPUT TO ARTIFACT HASH</text>
  </g>

  <g transform="translate(72 555)" font-family="DejaVu Sans, sans-serif">
    <rect width="260" height="42" rx="21" fill="#39c8a2"/>
    <text x="130" y="28" text-anchor="middle" fill="#071a15" font-size="17" font-weight="800">CORE ENGINEERING · @soccz</text>
    <text x="286" y="28" fill="#a8d6c8" font-size="17">Python 3.11–3.14 · offline replay · public research track</text>
  </g>
</svg>
